<svg version="1" xmlns="http://www.w3.org/2000/svg" width="346.667" height="346.667" viewBox="0 0 260.000000 260.000000"><path d="M117.5 56c-.4.6-.2 1.7.5 2.5.9 1.1.7 1.2-1.1.8-1.4-.4-2-.2-1.6.4.4.6-.4.8-2.1.6-1.9-.3-2.3-.2-1.4.5 1.1.7.8 1.1-1 1.7-1.2.4-2.7.6-3.2.6-.5-.1-1.3.4-1.8 1.1-.5.8-.7.2-.3-1.7l.5-3-1.1 2.8c-.8 2.1-1.6 2.7-3 2.4-1-.3-1.8-.2-1.7.2 0 .3 0 1.3-.1 2.1-.1 1.3-.2 1.3-1.1 0-.7-1-1-1.1-1.1-.3-.4 3.4-2 6.4-3 5.7-.5-.3-.9.2-.9 1.1 0 .9-.4 1.3-1 1-.5-.3-1.8-.1-2.7.5-1.7 1.1-1.7 1.1 0 .6 1-.3 1.7 0 1.7.8s-.6 1.3-1.2 1.2c-.7 0-1.4.3-1.5.8-.1.5-.7 1.3-1.5 1.7-1 .7-1 .9.2.9 1.1 0 1.2.2.2.8-1.5 1-2.5 5.2-1.1 5.2.5 0 .9.4.9.9s-1 .7-2.2.4c-2.3-.5-2.3-.5-.3 1 1.1.9 1.6 1.7 1 1.7-.5 0-1.1 1.5-1.2 3.4-.1 2.5.3 3.6 1.5 3.9 1.5.4 1.5.5 0 .6-1 0-1.8.8-1.8 1.7 0 .9.5 1.2 1.3.8.6-.4.3.3-.8 1.6l-2 2.3L86 104c1.4-.7 2.8-1.8 3.2-2.4.5-.7.8-.5.8.5 0 .9-1 1.9-2.2 2.3-2.3.6-2.3.6.6 2.9 2.1 1.7 2.6 2.6 1.7 3.2-1.1.6-1 .9 0 1.6.8.4 1.5 1.2 1.5 1.6.6 3.4 1.8 5.3 3.1 4.9.8-.3 1.7-.6 2-.6.3 0-.1-.7-.8-1.7-1.3-1.5-1.2-1.5.8-.2 1.4.8 1.8 1.6 1.2 2-.8.5-.8.8-.1 1.3.6.4.9 1.3.5 2.1-.3 1-.1 1.3.9 1 .8-.3 2.3.3 3.3 1.5 1 1.1 2.3 2 2.9 2 .6 0 .2-.7-.8-1.5-1.9-1.5-1.9-1.5.2-1.5 1.4 0 2.6.8 3.1 2.2l.8 2.2.6-2.3.6-2.2 2 2c2.1 2.1 2.8 3.7 1.2 2.7-.5-.3-1.1.1-1.4.9-.5 1.1-.2 1.2 1.6.4 1.7-.7 3-.6 5 .4 1.8 1 3.8 1.2 5.5.8 1.8-.5 3.5-.3 5.2.8 1.4 1 2.1 1.1 1.7.3-.5-.6-.3-1.3.2-1.3 2.1-.3 2.6-.4 4-1.3 1.1-.7 1.3-.4.7 1.8-.4 1.5-.2 2.6.4 2.6.5 0 1-.6 1.1-1.3 0-.6.4-.3.9.8.8 1.9.9 1.9.9.1.1-2 .1-2 1.7 0 .8 1 1.3 1.3.9.6-.3-.6-.1-1.2.4-1.2.6 0 1.1.5 1.1 1.1 0 .6.7.3 1.6-.5 1.8-1.9 3.1-2.1 1.6-.4-.7.9-.6 1.7.4 2.6 1.3 1.2 1.8.8 1.5-1.1-.1-.4.9-.2 2.1.5 1.3.7 2.6 1.2 3 1.3.4 0 1.3.9 2.1 1.9 1.1 1.5 1.6 1.6 2.2.6.6-.9.4-1.1-.5-.5-.8.5-1.1.4-.7-.3.8-1.2 3.2-1 4.4.3.4.4.2.5-.4.1-.7-.4-1.3-.2-1.3.5s1 .9 2.4.7c1.5-.3 2.7 0 3 .7.3.8-.2 1.1-1.5.8-1.1-.3-1.9 0-1.9.6 0 .7.4 1 .9.7 1.3-.8 4.2.4 3.6 1.5-.3.4-1.2.6-2 .2-.8-.3-1.5 0-1.5.5 0 1.1 3.1.9 5.2-.4.6-.4.8-.3.4.4-.3.6-.2 1.3.4 1.7.6.4.8 1.1.4 1.6-.3.5 0 1.8.8 2.7 1.2 1.5 1.1 1.6-.4.3-1-.7-1.8-2.2-1.8-3.2 0-1.3-.5-1.6-1.6-1.2-.9.3-1.1.9-.6 1.2.5.3 1.5 1.7 2.2 3 .9 1.8.9 2.5 0 3.1-.9.6-.8 1 .3 1.7 1.1.5 1.4 1.6 1.1 3.1-.4 1.2-1.1 1.9-1.8 1.5-.6-.3-.6 0 .2.8.6.7 1.2 1.9 1.2 2.6 0 1.9-4.2 3.3-5.8 2-.7-.5-1.5-.7-1.9-.3-.3.3-.2.6.4.6.6 0 1.4.7 1.7 1.6.3.8.2 1.2-.4.9-.8-.5-3.6 3.3-3.2 4.5.1.3-.4.5-1.1.6-3.4.3-3.8.5-3.1 1.5.4.8 0 .9-1.5.4-1.6-.5-2.1-.2-2.1 1.1 0 1.5-.3 1.4-1.9-.5-1.6-1.9-1.9-1.9-2.5-.5-.4.9-.2 2.2.4 2.9.8 1 .8 1.5-.1 2.1-.7.4-.9.3-.6-.3.4-.6-.2-1.8-1.3-2.8-1.9-1.7-2.5-1.2-2.2 1.7.1.3-.6.9-1.4 1.2-1.1.4-1.5.2-1.1-.7.7-1.9-2.4-1.8-4.6.2-1 .8-1.8 1.1-1.7.6.2-.6.2-1.7.1-2.5-.1-1.2-.5-1.1-1.6.4-1.4 1.8-1.5 1.8-2.5-.8-.5-1.5-1.4-2.4-2-2.1-.5.3-1 .8-1 1.1 0 .3.5.2 1-.1 1.2-.7 1.3 1.5.1 3.3-.7 1.1-.9 1.1-1.4-.1-.3-.9-1.5-1.2-3.6-.9-2.5.3-3.3 0-4-1.9-.5-1.3-1-1.8-1-1-.1.7-.7 1.1-1.6.7-1-.3-1.5.1-1.6 1.2 0 1-.3 1.2-.6.4-.2-.6-.9-1-1.4-.7-.5.4-.6-.1-.3-1 .5-1.3.2-1.5-2-.9-1.4.3-2.6.2-2.6-.3s-.7-1.8-1.6-2.9c-.8-1-1.3-1.3-.9-.7.9 1.8-1 1.6-2.5-.2-.9-1.1-1.6-1.2-2.5-.5-.9.8-1.4.7-1.7-.1-.2-.6-1.9-1.2-3.8-1.4-1.9-.2-3.4-.8-3.3-1.4.2-.6-.3-1.1-1.1-1.1s-1.8-.4-2.1-1c-.3-.6.1-.7.9-.4.9.3 1.6.2 1.6-.4 0-1.4-2.8-2.3-3.6-1.1-.4.6-1.2.5-2.2-.3-1-.7-.6 0 .7 1.4 2.1 2.4 2.2 2.6.4 2.2-1.3-.4-2.3 0-2.6 1-.4 1-.1 1.6.8 1.6s1.2.6.9 1.5c-.4.8-.1 2.2.6 3 1 1.2.9 1.6-.1 1.9-4.3 1.4-4.4 1.4-2.6 1.5 2 .1 2.2 1.2.6 2.8-.9.9-.7 1.6.6 2.9 1.3 1.3 1.9 1.4 2.5.4.6-1 .8-1 1.2 0 .2.7 1.3 1.4 2.4 1.5 1 .1 3 .7 4.3 1.4 1.3.7 2.1.9 1.7.3-.9-1.4 1.9-2.3 3.2-1 .8.8 1.5.8 2.6-.1 1-.8 1.6-.9 2.1-.1.3.5.5 1 .3 1.1-2.8.7-4.5.6-5.7-.4-1.1-1-1.3-.9-.9.3.2.8 1.5 1.7 2.9 2.1 1.3.3 2.3 1.1 2.2 1.7-.2.6.4.9 1.3.5 1.1-.4 1.2-.8.4-1.3-.7-.4-.2-.7 1.4-.7 1.4-.1 3.3.8 4.2 1.8 1.2 1.3 2.1 1.6 3.4.9 1-.5 2.1-.6 2.5-.2.5.4.5.1.1-.6-.4-.6-.2-1.2.3-1.2.6 0 1.1.4 1.1 1 0 .5.7.7 1.5.4.8-.4 1.5-.2 1.5.3s1.1.9 2.4.9c1.4 0 2.2-.4 2-.8-.3-.5-1-.6-1.5-.3-.5.4-.9.1-.9-.4 0-1.4.6-1.4 3.1 0 1.1.5 1.7 1.4 1.4 2-.4.5-.1.9.4.9.6 0 1.1-.5 1.1-1.1 0-.6.9-.8 2.1-.4 1.2.4 1.9.3 1.6-.1-.3-.5.6-.9 1.9-.9 1.3 0 2.4.3 2.4.7 0 .4 1.4.2 3.1-.4 1.6-.6 3.3-.8 3.6-.4.3.3 1.2-.2 1.9-1.2 1.2-1.5 1.2-1.5.7.6-.5 2-.3 2.2 2 1.3 1.6-.7 2.8-.6 3.6.2.8.8 1.1.8 1.1-.1 0-.7-.4-1.2-1-1.2-.5 0-1-.5-1-1.1 0-.5.5-.7 1-.4.6.3 1.3-.1 1.6-.9.3-.9 1.2-1.6 2-1.6s1.4-.6 1.4-1.3c0-.9.2-.9.8.1.9 1.3 7.2.6 7.2-.9 0-.4 1-1.1 2.1-1.4 1.6-.5 1.8-.9.9-1.5s-.6-1 1.1-1.6c1.3-.4 2.8-.8 3.3-.9 1.1 0 2.5-3.7 1.8-4.9-.3-.5 1.1-.6 3.1-.2 2.4.5 3.8.3 4.3-.6.4-.7.4-1-.1-.6-.4.4-1.5.2-2.3-.5-1.3-1-1.4-.9-.7.2.5.9.4 1.2-.3.8-.5-.4-.9-1.4-.8-2.2.3-1.8 1.6-3.2 1.6-1.7 0 .7.5 1.2 1.1 1.2.5 0 .7-.4.4-1-.8-1.3 1.4-5.2 2.6-4.5.5.4.9.2.9-.4 0-.5-.4-1.3-1-1.6-.6-.4-.3-1.6.8-3.3.9-1.4 1.2-2.3.6-1.9-.7.4-1.5 0-1.8-.9-.3-.8-.2-1.2.4-.9.6.3 1-.3 1-1.4 0-1.2.7-2.1 1.6-2.1.8 0 1.2-.5.9-1.1-.4-.6-1.3-.8-2-.5-1.6.6-2.7-1.8-1.9-3.9.4-.8.1-1.5-.5-1.5s-1-.9-.8-2c.4-2.2 1.7-3.9 1.7-2.1 0 .7.5.9 1.1.5.8-.4.6-1-.6-1.7-1.4-.8-1.5-1.1-.4-1.9 1.1-.7.9-.8-.6-.6-1.4.2-1.9-.2-1.7-1.5.2-.9-.4-2-1.3-2.3-.8-.3-1.5-1.2-1.5-2 0-.7-1.1-1.6-2.4-2-1.4-.3-2.7-1.2-3-2.1-.3-.8-1-1.2-1.5-.9-.5.3-.7-.4-.4-1.6.4-2.3.4-2.3-1.3-.3-1.6 2-1.6 2-1.1-.2.5-2.1.4-2.1-1.9-.6-2.2 1.4-2.4 1.4-2.4-.1 0-.9-.8-1.6-2.1-1.6-1.1 0-1.7-.5-1.4-1 .4-.6 1.2-.7 1.8-.4.9.5.9.3 0-.6-1-1.1-1.5-1.1-2.7 0-.9.7-1.3 1.7-1 2.2 1.1 1.7-3-.9-4.9-3.2-1-1.1-2.2-1.8-2.7-1.5-.6.4-.4 1.2.5 2.1 1.9 1.9 1.9 2.1 0 2.1-.8 0-1.2-.4-.9-.8.5-.8-1.4-2.2-3.4-2.5-.8-.2-1.7-.6-2-1-.4-.4 0-.5.9-.2.9.4 1.6.1 1.6-.6 0-.9-1.3-1-4.6-.5-3.2.5-4.9.3-5.9-.7-1.6-1.7-3.3-1.8-3-.3.2.6-.8 1.3-2.2 1.5-2.1.3-2.2.2-.7-.7.9-.5 1.7-1.5 1.7-2 0-.6-.4-.8-.9-.5-1.6 1-8.1 1.5-7.5.5.3-.5 1-.6 1.6-.3.6.4.8.2.4-.4-.3-.6-2-.9-3.6-.7-2 .3-3.3-.1-3.8-1.2-.6-1.1-1.1-1.2-1.6-.4-1.1 1.7-3.6 1.3-3.6-.7 0-1.4-.2-1.5-1-.2s-1 1.2-1-.3c0-1-.7-2-1.5-2.3-.8-.4-1.5-1.4-1.6-2.3 0-.9-.3-1.1-.5-.5-.3.7-1.5.9-2.6.6-2.1-.5-2.1-.6-.2-1.3 1.7-.7 1.7-.8-.5-.8-1.9-.1-2.1-.4-1.1-1.6.6-.8.9-1.9.5-2.6-.6-.8-1-.7-1.6.2-.6 1-.8.7-.6-.9.1-1.4.6-2.1 1.4-1.8 1 .4 1 .1 0-1.4-.7-1.2-1.9-1.8-2.7-1.5-.8.3-.5-.3.8-1.3 2.3-1.8 2.2-5.9-.2-4.5-.6.4-.4-.2.4-1.2s1-1.6.5-1.3c-.6.4-1.7.2-2.5-.4-1.2-.8-1.2-.9.2-.4 1 .3 2 .1 2.3-.4.9-1.5 3.7-1.2 2.9.2-.4.7-.3.9.1.5 1.4-1.2 1.5-3.9.1-3.4-.7.3-1.3-.1-1.3-.8 0-.9 1-1 3.4-.5 1.9.5 3.1.4 2.7-.1-1-1.6.6-4.8 2.2-4.2.7.3 1.4.1 1.4-.5s-.6-1.3-1.2-1.5c-.8-.4-.7-.6.4-.6.9-.1 1.9.5 2.2 1.1.5 1 .7 1 1.2 0 .3-.6 1-1.2 1.5-1.2.6 0 .8.4.5.8-.3.5.1.9.9.9 2.2 0 1.8-1.2-.7-2.6l-2.3-1.1 2.3.6c2.1.5 2.7-.4 2.3-2.9-.1-.5.3-.6.8-.3.5.4.8 1.5.6 2.6-.3 1.7 0 1.8 2.7 1.3 2.5-.5 2.9-.3 2.3.8-.5.8-.1.7 1.1-.3 1.6-1.4 2.3-1.5 3.4-.5 1 .9 1.1.9.6 0-.4-.8.2-1.5 1.9-1.9 1.5-.4 2.2-1.1 1.8-1.8-.3-.6.2-.4 1.3.5 1.9 1.6 6.7 3.2 8.1 2.7.4-.2.7-1 .6-1.8-.2-1 0-1.1.3-.2.3.6 1.1.9 1.7.6.8-.5.8-.2 0 .7-1.9 1.9-1.6 2.8.7 2.2 1.1-.3 1.7-1 1.3-1.6-.3-.5-.1-.7.5-.3.5.3 1.2.3 1.5-.1.2-.5.2-.2.1.4-.4 1.8 1.1 1.6 3-.2 1.3-1.3 1.5-1.3 2.1.5.8 2.5 4.1 4.5 5 3 .3-.5.3-1.5-.1-2.2-.5-.7-.3-.8.5-.4.7.5 1 1.5.7 2.3-.3.8.1 2.4.9 3.6l1.5 2.1.1-2.4c.1-2.5.1-2.5 1.1.3.6 1.7 1.5 2.6 2.3 2.3.7-.2 2.2.2 3.3.9 1 .8 2.2 1.1 2.6.8.3-.3.6.1.6.9 0 .9.7 1.8 1.5 2.2.8.3 1.4.2 1.4-.2-.3-2.1.2-3.2 1.3-2.6.7.5.8.3.3-.6-.6-1-.4-1.2 1.1-.6 1.4.5 1.6.4.8-.4-1.4-1.4-4.4-.2-4.4 1.9 0 1.3-.2 1.3-.9.2-.6-.9-.1-2.1 1.8-3.8 1.4-1.4 2-2.2 1.4-1.8-.9.4-1.1.1-.6-1.1.5-1.4.3-1.6-1.2-1-1.8.7-1.8.6.1-1.5 1-1.2 1.3-1.9.7-1.5-.9.5-1.1.2-.7-.8.3-.9 1-1.6 1.5-1.6.6 0 .6-.7 0-1.8-.5-.9-.9-2.1-1-2.6 0-.6-.8-1.1-1.8-1.2-1-.2-1.9-.8-2.1-1.4-.2-.5-.9-.7-1.4-.4-.6.4-1.7-.1-2.5-1.1-.7-1.1-1.3-1.4-1.3-.8 0 .6-1.1 1.3-2.5 1.5-2 .4-2.3.2-1.5-.7.8-.9.8-1.5 0-2-.5-.3-1 0-1 .7 0 1-.2 1-.8 0-.9-1.3-3.8-1.2-5.9.1-.6.4-1.5.2-1.9-.4-.4-.8-.9-.7-1.6.2-.8 1.1-.9 1-.4-.3.7-2.3-3.6-3.5-6.9-2-1.5.7-2.6.8-3 .2-.4-.7-1.3-.7-2.4 0-1.2.6-2.2.5-3-.3-.9-.9-1.4-.9-2 .1-.7 1.1-.9 1.1-1.4-.2-.4-1 .2-1.6 2.1-1.9 1.5-.2.7-.4-1.6-.4-2.4 0-5 .6-5.7 1.3-.7.7-2.3 1.1-3.6.9-1.3-.3-3.4-.7-4.7-.9-1.9-.4-2.1-.2-1.7 2.2l.5 2.7-1.1-2.5c-.7-1.4-1.1-2.8-1.1-3.3.3-1-.6-.9-1.3.3zm16.5 1c0 .5-.2 1-.4 1-.3 0-.8-.5-1.1-1-.3-.6-.1-1 .4-1 .6 0 1.1.4 1.1 1zm-2.5 2c-.3.5-1.2 1-1.8 1-.7 0-.6-.4.3-1 1.9-1.2 2.3-1.2 1.5 0zM128 69.5c.5-.3 1.1-.1 1.4.3.3.5-.5.8-1.7.7-2.9-.3-2.9-.3-2.1-1.7.6-.9.9-.9 1.2 0 .2.7.8 1 1.2.7zm4.2.7c-.7.7-1.2.8-1.2.2 0-.6.3-1.4.7-1.7.3-.4.9-.5 1.2-.2.2.3-.1 1.1-.7 1.7zm40.1 8.1c.4-.3.7-.1.7.5 0 1-1.6 1.1-4.8.3-.2-.1 0-.6.3-1.1.5-.8 1.1-.8 1.9-.1.7.6 1.6.8 1.9.4zM103 90c0 .5-.2 1-.4 1-.3 0-.8-.5-1.1-1-.3-.6-.1-1 .4-1 .6 0 1.1.4 1.1 1zm6.9 19.8c1.2 2.2 1.1 2.3-.8 1.2-2.2-1.1-2.6-2.2-1.4-3.3.7-.8.7-.9 2.2 2.1zm9.1 3.7c0 .8-.2 1.5-.4 1.5s-.6-.7-1-1.5c-.3-.8-.1-1.5.4-1.5.6 0 1 .7 1 1.5zM94 115c0 .5-.2 1-.4 1-.3 0-.8-.5-1.1-1-.3-.6-.1-1 .4-1 .6 0 1.1.4 1.1 1zm27.2 11.7c-.6.2-1 .9-.6 1.4.3.5.1.9-.5.9-.5 0-1.2-.4-1.5-.9-.6-.9 1-1.9 2.9-1.9.6 0 .4.2-.3.5zm3.5 1.9c-.3.3-1.2.4-1.9.1-.8-.3-.5-.6.6-.6 1.1-.1 1.7.2 1.3.5zm54.5 7.6c-.7.7-1.2.8-1.2.2 0-1.4 1.2-2.6 1.9-1.9.2.3-.1 1.1-.7 1.7zM103 172.1c0 .6-.4.7-1 .4-.5-.3-1-1.1-1-1.6 0-.6.5-.7 1-.4.6.3 1 1.1 1 1.6zm-15.8 7.1c-.8.8-.9.4-.5-1.3.4-1.3.8-1.8 1.1-1 .2.7-.1 1.8-.6 2.3zm7.2 3.4c.3.8.2 1.2-.4.9-.6-.3-1-1-1-1.6 0-1.4.7-1.1 1.4.7zm58.6 4.3c0 .4-.8.7-1.9.7-1.1 0-1.7-.6-1.4-1.3.5-1.2 3.3-.7 3.3.6zm-38.1 1.8c0 1.1-.3 1.3-.6.5-.2-.6-.9-1-1.4-.6-.5.3-.9 0-.9-.5 0-.6.7-1.1 1.5-1.1s1.5.8 1.4 1.7z"/><path d="M141.5 56c.4.6 1 .8 1.5.5.5-.3 1.1-.1 1.5.4.3.6 1.2.8 2.1.4 2.1-.8 1-1.6-2.7-2-1.8-.2-2.8.1-2.4.7zM112.8 57.2c-.5 1.1-.2 1.5 1 1.4.9-.2 1.8-.9 2-1.7.3-1.2.2-1.2-.6 0-.8 1.1-1 1.1-1.4 0-.3-1-.6-.9-1 .3zM156.5 58c-.3.5-.1 1.1.4 1.4.5.4 1.2.2 1.6-.4.4-.6 1.2-.7 1.8-.4.7.4.8.3.4-.1-1.1-1.2-3.6-1.5-4.2-.5zM109 60.9c0 .7-.5.9-1.2.5-.7-.5-.8-.3-.3.5.5.9 1 1 1.8.2.6-.6.8-1.4.4-1.8-.4-.3-.7-.1-.7.6zM93 69.8c0 .5.7.9 1.5.9s1.5-.4 1.5-.9c0-.4-.7-.8-1.5-.8s-1.5.4-1.5.8zM139.4 72.7c.4.4 1.6.8 2.8 1 2.8.4 1.8-.6-1.2-1.2-1.2-.2-2-.1-1.6.2zM181 75.1c0 .5.5.7 1 .4.6-.3 1-.8 1-1.1 0-.2-.4-.4-1-.4-.5 0-1 .5-1 1.1zM111.5 78c.3.5.8 1 1.1 1 .2 0 .4-.5.4-1 0-.6-.5-1-1.1-1-.5 0-.7.4-.4 1zM155 118.4c0 1.7 1.6 3 2.3 1.9.3-.5-.1-1.4-.9-2.1-1.2-1-1.4-1-1.4.2zM110.1 126.6c0 1.1.3 1.4.6.6.3-.7.2-1.6-.1-1.9-.3-.4-.6.2-.5 1.3zM132.3 131.7c0 .9.4 1 1.4.2.7-.6 1.3-1.2 1.3-1.4 0-.1-.6-.2-1.3-.2-.8 0-1.4.6-1.4 1.4zM183.3 144.1c1.3.8 1.5 1.4.7 3-1.5 2.8-.5 2.3 1.5-.7.9-1.5 1.2-2.3.6-2-.6.4-1.1.2-1.1-.3 0-.6-.8-1.1-1.7-1.1-1.7.1-1.7.1 0 1.1zM165.6 156.3c.3 1 .9 1.5 1.2 1.2.3-.3 0-1.1-.7-1.8-1-.9-1.1-.8-.5.6zM185.7 156.1c.7.7 1.5 1 1.8.7.3-.3-.2-.9-1.2-1.2-1.4-.6-1.5-.5-.6.5zM85.7 160.1c.7.7 1.5 1 1.8.7.3-.3-.2-.9-1.2-1.2-1.4-.6-1.5-.5-.6.5zM92.6 165.3c.3 1 .9 1.5 1.2 1.2.3-.3 0-1.1-.7-1.8-1-.9-1.1-.8-.5.6zM182 167c0 .5.5 1 1.1 1 .5 0 .7-.5.4-1-.3-.6-.8-1-1.1-1-.2 0-.4.4-.4 1zM155.4 170.6c-1.8 1.4-1.8 1.5.4.4 1.2-.6 2.2-1.3 2.2-1.5 0-.8-.5-.6-2.6 1.1zM82.5 171c-.3.5-.1 1 .4 1 .6 0 1.1-.5 1.1-1 0-.6-.2-1-.4-1-.3 0-.8.4-1.1 1zM149.5 173c-.3.5-.1 1 .4 1 .6 0 1.1-.5 1.1-1 0-.6-.2-1-.4-1-.3 0-.8.4-1.1 1zM84 174c0 .5.5 1 1.1 1 .5 0 .7-.5.4-1-.3-.6-.8-1-1.1-1-.2 0-.4.4-.4 1zM120.5 176c-.3.5-.1 1 .4 1 .6 0 1.1-.5 1.1-1 0-.6-.2-1-.4-1-.3 0-.8.4-1.1 1zM164.3 186c-1.3.5-2.3 1.1-2.3 1.4 0 .8 3 0 4.2-1.2 1.4-1.4 1.1-1.4-1.9-.2zM154.9 188.6c-1.1 1.4-1 1.5 1.1 1.2 1.3-.1 2.5-.9 2.8-1.6.5-1.7-2.3-1.5-3.9.4zM107 190.6c0 .8.5 1.2 1 .9.6-.4.8-1.1.5-1.6-.9-1.4-1.5-1.1-1.5.7z"/></svg>